<?xml version="1.0" encoding="UTF-8" standalone="no"?>
<!DOCTYPE svg PUBLIC "-//W3C//DTD SVG 1.1//EN" "http://www.w3.org/Graphics/SVG/1.1/DTD/svg11.dtd">
<svg version="1.1" xmlns="http://www.w3.org/2000/svg" xmlns:xlink="http://www.w3.org/1999/xlink" preserveAspectRatio="xMidYMid meet" viewBox="9.891791044776067 228.7350746268656 607.2462686567166 250.37951853306075" width="603.25" height="246.38"><defs><path d="M78.13 431.71L82.57 408.88L614.14 391.11L564.03 476.11L21.68 464.7L10.89 434.25L78.13 431.71Z" id="a4OPP3eoM"></path><path d="M78.17 432.76L80.11 422.57L12.16 425.74L10.89 435.29L78.17 432.76Z" id="d5GKehYPR"></path><path d="M82.57 409.94L383.82 400.41L383.88 368.66L80.04 381.98L82.57 409.94Z" id="d2ea2T8x"></path><path d="M193.58 377.53L198.65 294.44L166.3 294.44L140.93 380.07L193.58 377.53Z" id="fk3rmt0qa"></path><path d="M193.58 377.53L253.84 374.42L228.47 294.44L198.65 294.44L193.58 377.53Z" id="a1q1xcNitq"></path><path d="M330.59 229.74L339.42 370.79L253.84 374.42L312.51 229.74L330.59 229.74Z" id="b1D67r612f"></path><path d="M339.34 370.84L410.52 368.65L355.97 229.74L329.96 229.74L339.34 370.84Z" id="c2kD0md6BP"></path><path d="M383.54 400.43L490.47 396.27L477.8 366.12L383.58 369.2L383.54 400.43Z" id="aU1Aggh58"></path></defs><g><g><use xlink:href="#a4OPP3eoM" opacity="1" fill="#60747c" fill-opacity="1"></use></g><g><use xlink:href="#d5GKehYPR" opacity="1" fill="#425159" fill-opacity="1"></use></g><g><use xlink:href="#d2ea2T8x" opacity="1" fill="#75888f" fill-opacity="1"></use></g><g><use xlink:href="#fk3rmt0qa" opacity="1" fill="#8c9fa6" fill-opacity="1"></use></g><g><use xlink:href="#a1q1xcNitq" opacity="1" fill="#506b8b" fill-opacity="1"></use></g><g><use xlink:href="#b1D67r612f" opacity="1" fill="#a4b6c1" fill-opacity="1"></use></g><g><use xlink:href="#c2kD0md6BP" opacity="1" fill="#506b8b" fill-opacity="1"></use></g><g><use xlink:href="#aU1Aggh58" opacity="1" fill="#506b8b" fill-opacity="1"></use></g></g></svg>